<svg width="80" height="80" viewBox="0 0 25 24" fill="none" xmlns="http://www.w3.org/2000/svg" transform="rotate(0 0 0)"><path d="M15.4425 18.0431C15.5593 18.0438 15.6761 18.0581 15.7904 18.0861L19.7052 19.0448C20.6502 19.2763 21.562 18.5608 21.562 17.5879V7.17656C21.562 6.48557 21.09 5.88398 20.4188 5.71961L18.5424 5.26008M15.4425 18.0431C15.322 18.0423 15.2015 18.0561 15.0835 18.0845L9.54102 19.4147C9.42531 19.4425 9.30713 19.4563 9.18896 19.4561M15.4425 18.0431V13.158M9.18896 19.4561C9.06982 19.456 8.95069 19.4416 8.83414 19.4131L4.20569 18.2796C3.53453 18.1152 3.0625 17.5136 3.0625 16.8226V6.41127C3.0625 5.43838 3.97435 4.7229 4.91931 4.95432L6.08089 5.2388M9.18896 19.4561V13.1446M15.5944 6.03146C15.5944 9.34375 12.3216 11.9984 12.3216 11.9984C12.3216 11.9984 9.03146 9.34375 9.03146 6.03146C9.03146 4.21916 10.5006 2.75 12.3129 2.75C14.1252 2.75 15.5944 4.21916 15.5944 6.03146Z" stroke="#343C54" stroke-width="1.5" stroke-linecap="round" stroke-linejoin="round"/><path d="M12.3125 6.03125H12.3225" stroke="#343C54" stroke-width="1.8" stroke-linecap="round" stroke-linejoin="round"/></svg>